<svg width="337" height="337" viewBox="0 0 337 337" fill="none" xmlns="http://www.w3.org/2000/svg">
<path d="M243.702 82.565C246.438 84.2887 248.606 86.7792 249.936 89.7262C251.721 93.9067 252.978 98.2935 253.677 102.785C252.644 102.812 251.617 102.942 250.61 103.173C250.492 103.173 249.818 103.526 249.7 103.897C249.161 105.765 248.75 107.668 248.47 109.592L214.77 109.795C214.383 109.795 214.433 110.25 214.77 110.266C214.77 110.266 245.538 110.738 248.47 110.755C247.729 116.888 248.352 123.628 252.7 127.976C256.794 132.02 270.712 132.593 275.885 128.734C280.182 125.516 281.244 116.214 280.94 110.755C281.951 110.755 304.732 110.351 306.99 110.266C307.053 110.266 307.113 110.242 307.157 110.197C307.201 110.153 307.226 110.093 307.226 110.03C307.226 109.968 307.201 109.908 307.157 109.864C307.113 109.819 307.053 109.795 306.99 109.795C303.149 109.795 280.89 109.626 280.89 109.626C280.435 104.571 279.205 104.066 279.205 103.83C279.191 103.674 279.128 103.526 279.025 103.408C278.922 103.29 278.784 103.208 278.632 103.173C277.166 102.886 275.677 102.734 274.183 102.718C276.542 98.9263 278.564 88.6141 282.271 81.7056C287.765 71.4103 308.439 81.217 308.102 72.118C307.698 62.008 296.476 56.3295 284.428 61.6878C272.987 66.7428 270.005 90.3328 269.802 102.65C266.348 102.65 268.016 102.751 263.062 102.65C267.393 96.8875 272.903 77.6785 271.942 64.249C270.842 55.3367 267.091 46.96 261.175 40.2041C255.985 34.3908 249.903 31.9307 245.319 36.5982C238.579 43.3382 244.78 50.8701 250.543 58.5032C256.878 66.9282 259.254 71.1238 260.114 83.121C260.516 89.6301 260.392 96.1611 259.743 102.65H257.873C259.322 97.9153 257.451 87.4852 256.087 82.5818C254.132 75.6565 250.796 68.6806 245.505 63.8783C239.254 58.4814 231.653 54.8875 223.515 53.4819C218.545 52.6394 214.299 52.9595 211.99 54.3412C211.141 54.7828 210.486 55.5227 210.15 56.4187C209.814 57.3146 209.821 58.3032 210.17 59.194C212.967 68.3436 232.749 75.825 243.702 82.565ZM284.765 62.7662C296.038 57.7112 306.417 63.019 306.771 72.1854C307.041 79.2118 286.77 70.5004 281.244 81.2675C277.402 88.7152 275.7 99.1285 273.375 102.734H272.178C273.863 95.3036 277.991 78.7737 282.844 72.9268C289.045 65.3611 299.846 69.7758 300.318 69.6579C300.503 69.6579 300.688 69.3546 300.132 69.1524C293.392 66.7091 286.534 66.7597 281.951 72.1854C276.441 78.6895 272.97 94.36 271.521 102.785H270.072C270.527 90.99 273.83 67.5685 284.765 62.7662ZM260.973 83.1042C260.299 71.2081 258.109 66.8439 251.453 57.8292C245.993 50.4994 240.146 43.5067 246.179 37.3901C250.29 33.2113 255.648 35.7051 260.299 40.9623C265.994 47.5544 269.585 55.6997 270.611 64.3501C271.706 77.9986 266.146 97.5952 262.186 102.667H261.293C263.096 94.9515 264.262 87.1012 264.781 79.195C265.169 72.455 265.051 67.7707 263.096 61.9069C261.49 57.4423 259.261 53.2273 256.474 49.3873C255.144 47.4933 253.68 45.697 252.093 44.0122C252.053 43.963 251.995 43.9319 251.932 43.9255C251.868 43.9192 251.805 43.9383 251.756 43.9785C251.707 44.0187 251.676 44.0768 251.669 44.14C251.663 44.2032 251.682 44.2663 251.722 44.3155C252.144 44.7565 252.538 45.2236 252.902 45.714C258.159 52.454 263.349 62.2944 263.753 70.989C264.158 79.6836 262.422 94.1915 260.821 102.785H260.35C261.094 96.2527 261.302 89.6705 260.973 83.1042ZM278.143 104.605C280.923 107.149 280.047 124.05 275.009 127.824C269.971 131.598 256.845 130.705 253.273 127.251C247.645 121.842 248.218 111.715 250.138 104.2C250.258 104.358 250.423 104.475 250.61 104.537C251.905 104.836 253.225 105.017 254.553 105.077C252.904 111.191 253.192 117.668 255.379 123.612C255.459 123.781 255.604 123.912 255.781 123.976C255.958 124.039 256.153 124.029 256.322 123.949C256.492 123.868 256.623 123.724 256.686 123.547C256.75 123.37 256.74 123.175 256.659 123.005C254.536 118.759 253.963 109.323 255.193 105.195C260.451 105.43 274.52 105.532 278.143 104.605ZM244.78 64.7377C256.204 74.8477 259.136 97.2413 257.367 102.701H256.322C256.083 98.0185 255.268 93.3836 253.896 88.9006C250.256 77.1056 244.157 69.8601 234.805 64.4007C229.92 61.6064 224.692 59.4596 219.252 58.0145C219.19 57.9989 219.124 58.0087 219.068 58.0419C219.013 58.0751 218.973 58.1289 218.958 58.1915C218.942 58.254 218.952 58.3202 218.985 58.3755C219.018 58.4308 219.072 58.4707 219.134 58.4863C225.484 60.4996 231.511 63.4165 237.029 67.1472C243.148 71.2208 247.926 77.013 250.762 83.795C253.453 89.79 255.16 96.1794 255.817 102.718H254.233C253.61 98.0927 252.41 93.5642 250.661 89.2376C249.294 86.1263 247.052 83.48 244.207 81.6214C233.069 74.7634 213.877 67.2483 211.316 58.8233C208.94 51.0892 231.839 53.1449 244.78 64.7377ZM99.0782 151.498C76.634 143.697 56.5151 140.209 43.9956 137.058C43.8405 137.014 43.6783 137.002 43.5186 137.023C43.3588 137.044 43.2049 137.096 43.066 137.178C42.9272 137.26 42.8062 137.368 42.7104 137.498C42.6145 137.627 42.5458 137.775 42.5084 137.931C42.4709 138.088 42.4655 138.251 42.4924 138.409C42.5193 138.568 42.578 138.72 42.6649 138.856C42.7519 138.991 42.8653 139.108 42.9984 139.198C43.1315 139.289 43.2815 139.352 43.4395 139.383C51.4938 141.321 63.6595 143.545 76.8194 146.595C98.5559 151.65 99.0277 153.15 99.3815 152.105C99.4193 151.984 99.4088 151.854 99.3522 151.74C99.2957 151.627 99.1975 151.541 99.0782 151.498ZM276.93 165.13C276.93 165.09 276.922 165.051 276.907 165.014C276.892 164.977 276.869 164.944 276.841 164.916C276.813 164.887 276.78 164.865 276.743 164.85C276.706 164.835 276.666 164.827 276.627 164.827C261.849 164.827 247.476 168.197 239.338 168.955C239.239 168.963 239.142 168.992 239.054 169.038C238.966 169.084 238.888 169.148 238.826 169.225C238.763 169.302 238.716 169.391 238.688 169.486C238.66 169.582 238.652 169.682 238.664 169.781C238.672 169.88 238.7 169.977 238.746 170.066C238.793 170.155 238.856 170.234 238.933 170.298C239.009 170.362 239.098 170.411 239.194 170.44C239.289 170.47 239.39 170.481 239.489 170.471C245.454 169.882 255.783 167.624 265.455 166.377C276.189 165.13 276.947 165.888 276.93 165.13ZM226.026 200.195C226.041 200.167 226.05 200.137 226.052 200.106C226.055 200.075 226.052 200.043 226.042 200.014C226.033 199.984 226.018 199.956 225.998 199.932C225.978 199.909 225.953 199.889 225.925 199.875L225.504 199.656L225.403 200.161C225.689 200.296 225.908 200.515 226.026 200.195Z" fill="#023047"/>
<path d="M328.374 204.407C324.043 203.514 313.343 203.868 308.929 204.256C312.568 191.82 316.326 175.611 317.842 166.68C318.392 164.209 318.629 161.678 318.55 159.148C318.495 158.921 318.393 158.708 318.251 158.522C318.108 158.336 317.929 158.182 317.724 158.07C310.984 153.84 240.366 163.125 235.446 165.568C233.98 166.293 232.666 169.949 232.076 171.6C227.712 164.422 228.167 162.72 223.297 151.38C220.262 143.994 216.414 136.969 211.822 130.436C211.94 129.543 216.607 94.68 211.603 85.362C208.233 79.1275 189.984 76.937 182.958 76.3472C182.958 75.9765 182.082 69.6072 181.711 66.7259C187.642 61.772 190.136 52.6561 183.699 51.1228C179.133 50.0444 161.104 46.607 147.674 50.0781C139.249 52.2686 132.509 57.1888 131.936 66.9281C131.71 70.6263 131.936 74.3384 132.61 77.9817C123.899 78.9421 108.902 80.3744 101.252 83.2557C91.412 86.9627 95.5571 130.014 96.6018 133.502C96.0289 134.918 95.4897 136.35 95.001 137.681C70.4843 131.43 15.6038 119.77 13.1606 119.989C12.5242 119.981 11.8958 120.131 11.3313 120.425C10.7669 120.719 10.2839 121.148 9.9254 121.674C9.26825 121.825 9.03235 122.752 8.9144 123.359C7.2294 132.323 10.2792 185.855 10.8184 194.938C11.7115 198.206 37.6773 205.3 41.0473 206.227C41.2158 210.659 42.1089 232.665 42.2942 237.18C40.8283 236.913 39.3772 236.57 37.9469 236.153C34.9476 234.923 23.4559 246.111 24.4669 245.184C20.0691 249.093 67.9231 261.95 71.7481 260.872C75.573 259.793 83.1386 252.565 81.858 248.537C81.504 247.821 80.9068 247.254 80.173 246.937C76.5503 245.033 66.9626 242.69 62.9692 241.73C63.3567 233.575 63.3567 220.196 63.3399 212.074C68.0747 213.253 94.9505 219.758 99.8033 219.673C100.151 219.678 100.494 219.591 100.797 219.421C102.348 219.202 104.167 218.814 104.319 217.23C104.319 216.758 104.707 212.647 105.195 206.547C117.075 211.08 131.481 210.743 134.042 209.698C134.733 209.365 135.317 208.846 135.727 208.198C135.845 208.35 135.896 208.316 136.789 208.451C140.159 208.99 145.551 209.496 148.584 207.912C152.881 208.603 165.333 209.597 166.26 205.435C166.378 204.879 166.546 203.75 166.715 202.385C179.184 203.059 223.465 202.756 223.634 202.756L222.606 207.39C222.58 207.351 222.545 207.321 222.504 207.3C222.462 207.279 222.416 207.27 222.37 207.272C222.37 207.171 222.37 207.137 222.37 207.272C215.47 206.728 208.547 206.548 201.628 206.733C199.168 206.85 192.68 207.154 192.563 209.546C191.701 211.58 191.576 213.85 192.209 215.966C192.579 217.297 195.713 219.454 196.876 220.246C190.288 219.589 186.446 219.842 184.458 220.55C183.985 220.632 183.544 220.844 183.184 221.162C182.825 221.48 182.56 221.891 182.421 222.351C182.281 222.81 182.271 223.299 182.393 223.763C182.515 224.228 182.763 224.649 183.11 224.981C185.368 228.082 190.069 229.126 190.574 233.187C191.535 240.887 171.955 249.599 164.811 252.649C168.4 247.931 178.021 233.086 173.354 229.497C168.164 225.503 123.663 223.751 119.568 224.796C116.687 225.537 95.5065 241.191 95.8941 246.701C96.1637 250.29 117.007 253.811 120.883 254.485C125.247 255.227 156.386 260.08 160.109 257.704C160.899 257.385 161.617 256.911 162.219 256.308C162.821 255.706 163.296 254.989 163.614 254.199C170.067 251.981 176.277 249.113 182.149 245.639C191.417 239.893 196.607 232.783 187.44 226.801C186.345 226.093 183.346 223.936 183.784 222.723C184.727 220.044 197.752 221.038 197.938 221.038C203.987 224.981 215.563 231.064 222.387 232.833C229.599 234.737 263.299 231.047 271.437 230.019C272.364 233.389 273.257 236.523 273.847 238.444C272.583 238.545 268.977 238.865 267.966 239.657C267.41 240.096 267.427 240.837 268.32 241.342C268.32 246.987 267.629 263.871 269.314 271.487C269.955 274.335 270.696 275.514 273.645 276.542C279.222 278.345 289.939 277.705 295.55 276.205C299.038 275.261 299.493 274.52 300.049 272.667C301.97 266.365 301.868 247.762 301.734 241.157C301.842 241.079 301.929 240.976 301.99 240.858C302.051 240.739 302.082 240.608 302.082 240.475C302.082 240.341 302.051 240.21 301.99 240.092C301.929 239.973 301.842 239.87 301.734 239.792C300.487 239.214 299.145 238.872 297.774 238.781C298.01 236.894 299.274 226.346 299.459 224.492C300.34 223.964 301.126 223.292 301.784 222.504C302.814 221.252 303.484 219.744 303.722 218.14C305.407 215.933 307.833 207.693 308.625 204.997C316.14 205.317 327.16 204.879 328.188 204.997C328.266 205.022 328.351 205.014 328.424 204.976C328.497 204.938 328.551 204.873 328.576 204.795C328.6 204.717 328.593 204.632 328.555 204.559C328.517 204.486 328.452 204.432 328.374 204.407ZM100.612 240.77C101.741 239.523 103.072 238.225 104.488 236.911C110.503 231.35 118.153 225.756 119.821 225.335C123.865 224.29 168.282 227.02 172.797 230.39C173.556 230.963 173.707 232.075 173.556 233.406C172.949 238.697 167.422 247.425 164.204 251.688C160.564 248.554 105.431 241.427 100.612 240.77ZM183.177 77.5604C189.614 78.167 207.66 80.2396 210.761 85.8675C215.142 93.787 212.446 120.798 211.367 129.677C210.424 128.414 209.446 127.217 208.452 126.122C202.74 119.854 192.933 116.703 184.626 115.102C179.29 114.173 173.907 113.537 168.501 113.198C168.332 113.198 168.602 113.451 167.271 110.721C165.282 106.627 165.164 106.694 165.367 106.576C167.576 106.459 169.764 106.085 171.888 105.464C177.583 103.779 180.97 100.409 182.57 92.2199C183.44 87.3662 183.621 82.4143 183.11 77.5099L183.177 77.5604ZM168.669 113.721C169.731 113.872 170.017 113.855 170.101 113.906C170.101 114.327 173.792 134.126 161.154 135.036C150.707 135.895 143.832 121.236 140.125 111.446C141.473 111.227 142.552 111.075 143.276 110.974C143.63 118.658 154.684 132.593 160.817 131.615C167.709 130.486 171.096 120.006 168.669 113.721ZM143.512 82.7165C143.663 81.9648 144 81.2627 144.491 80.6742C144.983 80.0856 145.613 79.6292 146.326 79.3465C149.696 78.5209 149.696 82.7165 152.375 82.4806C155.745 82.2616 151.988 74.4432 154.886 69.6746C158.037 64.4174 170.809 75.0498 181.138 67.164C182.385 76.0439 183.75 82.9524 181.846 92.0177C180.161 99.9709 177.027 102.903 171.618 104.487C169.395 104.998 167.145 105.381 164.878 105.633C164.697 105.735 164.545 105.881 164.436 106.058C164.327 106.235 164.265 106.436 164.255 106.644C164.255 107.233 165.94 110.249 167.507 113.771C169.849 119.298 166.799 129.34 160.632 130.301C156.251 130.992 147.674 121.168 145.231 114.226C144.152 111.159 144.473 111.041 146.377 99.061C149.056 99.2464 149.612 94.006 149.747 91.2932C149.775 90.7181 149.575 90.1551 149.191 89.7261C147.977 88.395 146.983 89.9452 144.624 86.9964C144.11 86.4244 143.74 85.7369 143.546 84.9921C143.353 84.2473 143.341 83.4668 143.512 82.7165ZM132.846 79.1949C135.104 89.5071 141.035 96.6683 145.113 98.6566C144.372 103.391 143.529 108.666 143.31 110.266C133.587 110.754 123.998 112.743 114.884 116.164C110.837 117.714 107.065 119.904 103.712 122.651C101.859 113.047 106.628 94.2756 106.038 88.951C105.768 86.6931 105.128 84.3004 102.921 83.8118C110.469 81.4359 124.455 80.0879 132.846 79.1949ZM101.91 84.2499C102.312 84.2636 102.708 84.3588 103.073 84.5296C103.438 84.7005 103.764 84.9435 104.033 85.244C104.792 86.3904 105.175 87.7452 105.128 89.1195C105.499 94.1745 100.258 112.811 103.207 123.14C100.367 125.803 98.2156 129.116 96.9388 132.795C95.5908 124.589 93.3497 87.2323 101.91 84.2499ZM41.3675 161.018C41.5023 160.227 42.9514 159.873 43.7433 159.738C49.5903 158.777 61.7391 162.114 61.4695 166.175C61.0651 172.19 62.9186 245.083 61.3347 247.762C59.4475 250.981 49.1353 249.195 45.0239 246.33C43.1536 245.033 43.1873 243.92 43.2378 244.14C41.8056 186.765 41.1316 162.333 41.3675 161.018ZM80.4258 249.093C81.2851 251.958 74.5283 258.546 71.3942 259.423C68.2601 260.299 22.0574 248.335 25.0735 245.605C23.675 246.869 32.5886 238.663 36.5147 237.349C36.8276 237.193 37.1853 237.151 37.5257 237.231C37.9806 237.433 39.7667 237.888 42.3448 238.495C42.4964 242.05 42.5975 244.156 42.5975 244.156C43.5917 249.11 59.4475 252.851 62.2109 248.285C62.634 246.666 62.8603 245.003 62.8849 243.331C65.463 243.971 78.6902 247.189 80.4258 249.093ZM99.8033 218.241C95.3717 218.41 67.7883 211.939 63.3399 210.895C63.2556 191.146 62.8512 169.005 63.0534 166.276C63.4578 160.075 47.6862 156.705 42.1257 158.525C41.5747 158.646 41.0683 158.918 40.6635 159.311C40.2587 159.704 39.9715 160.202 39.8341 160.749C39.4634 162.99 40.9125 202.874 40.9968 205.267C38.2502 204.525 12.5203 197.667 11.4587 194.921C11.1723 188.72 8.42575 128.768 10.3803 123.089C19.5467 125.381 97.8318 141.169 103.342 144.994C104.723 148.785 101.573 212.883 99.8033 218.241ZM103.763 217.247C103.763 218.376 102.263 218.763 101.151 218.932C102.971 214.568 106.594 148.162 104.74 144.253C102.887 140.344 18.3504 123.915 10.4477 121.707C10.7992 121.327 11.2271 121.026 11.7033 120.822C12.1796 120.619 12.6934 120.519 13.2111 120.528C15.5533 120.359 101.994 139.67 107.015 142.433C107.858 144.859 107.015 161.76 106.897 164.54C106.594 171.246 103.83 216.337 103.763 217.247ZM149.258 205.84C147.287 208.468 140.294 208.148 137.008 207.845H136.199C137.698 204.831 138.548 201.536 138.693 198.173C140.378 197.701 146.545 196.269 147.489 197.785C147.775 198.223 146.865 198.746 146.394 198.998C145.148 199.576 143.842 200.017 142.501 200.313C142.302 200.351 142.127 200.466 142.013 200.634C141.899 200.801 141.857 201.007 141.895 201.206C141.933 201.405 142.048 201.58 142.215 201.694C142.383 201.808 142.589 201.85 142.788 201.812C144.473 201.576 149.073 200.936 150.707 201.492C150.034 202.427 149.067 203.109 147.961 203.43C146.385 203.419 144.812 203.549 143.259 203.817C143.036 203.86 142.835 203.983 142.697 204.163C142.558 204.344 142.491 204.569 142.507 204.796C142.524 205.023 142.623 205.236 142.787 205.394C142.951 205.552 143.167 205.645 143.394 205.654C145.106 205.704 146.814 205.471 148.449 204.963C148.875 204.981 149.294 205.084 149.679 205.267C149.571 205.493 149.409 205.69 149.207 205.84H149.258ZM165.198 205.25C165.127 205.512 164.993 205.754 164.808 205.953C164.623 206.153 164.393 206.304 164.137 206.396C161.019 208.081 153.15 207.777 149.646 207.423C150.943 206.429 151.701 204.812 150.387 203.919C152.982 202.234 152.712 200.431 151.01 199.908C149.908 199.641 148.769 199.561 147.64 199.672C148.702 198.88 149.09 197.987 148.449 197.027C147.522 195.713 145.079 195.881 143.563 196.134C142.841 189.463 142.47 182.759 142.451 176.049C146.95 179.318 161.862 179.419 167.068 176.318C167.321 181.98 165.619 202.79 165.131 205.25H165.198ZM150.741 201.425C150.741 201.425 150.69 201.458 150.69 201.425H150.741ZM186.901 201.795C190.018 192.68 190.456 173.37 190.271 163.715C192.883 167.91 207.121 188.029 207.222 188.198C207.568 188.727 207.975 189.213 208.435 189.647C211.83 192.749 215.642 195.364 219.758 197.415C224.156 199.74 224.51 199.622 224.476 199.807L223.887 202.335C223.6 202.318 189.479 201.795 186.85 201.795H186.901ZM194.163 209.361C197.786 206.834 222.421 207.979 222.69 207.811V207.996C220.331 219.286 219.421 223.363 219.135 224.846C219.287 224.189 220.213 219.791 221.275 214.922C222.016 211.349 222.96 207.103 223.92 202.604C224.358 200.549 224.645 199.234 224.662 199.133C220.045 196.69 213.002 192.477 209.311 188.754C208.385 187.81 190.473 162.99 190.305 162.703C190.136 162.417 190.136 155.02 189.951 154.683C189.916 154.645 189.869 154.618 189.818 154.607C189.768 154.596 189.715 154.601 189.667 154.622C189.619 154.642 189.578 154.676 189.551 154.721C189.523 154.765 189.51 154.816 189.513 154.868C189.344 154.868 189.513 190.894 186.395 201.745L166.984 201.93C167.102 200.987 167.22 199.891 167.355 198.712C175.173 199.706 178.729 191.129 176.656 184.137C175.426 180.295 172.258 179.705 168.636 181.559C168.804 179.315 168.804 177.062 168.636 174.819C168.792 174.431 168.819 174.004 168.713 173.6C168.606 173.196 168.372 172.838 168.046 172.578C165.535 170.219 158.509 169.966 155.088 169.966C151.668 169.966 144.624 170.235 142.13 172.578C141.912 172.746 141.739 172.966 141.625 173.218C140.344 175.526 142.804 195.763 143.108 196.201C141.64 196.493 140.194 196.882 138.777 197.364V194.668C138.676 188.787 119.872 185.518 119.231 182.165C119.012 181.019 118.658 178.458 118.254 175.425C115.979 158.777 116.316 159.418 115.946 159.418C115.883 159.418 115.823 159.443 115.779 159.487C115.735 159.531 115.71 159.591 115.71 159.654C115.71 160.109 117.529 178.441 118.187 182.334C118.844 186.226 137.514 190 137.598 194.668C137.598 198.308 136.789 207.339 133.638 208.637C131.734 209.445 117.007 210.187 105.263 206.059C105.515 202.79 110.2 144.27 107.942 141.675C107.082 140.681 96.9893 138.153 95.7087 137.833C100.764 126.375 104.504 116.939 139.654 111.429C140.63 114.701 141.823 117.904 143.226 121.017C146.798 128.65 152.847 136.889 161.222 136.182C170.843 135.356 172.393 124.926 170.86 115.406C170.759 114.732 170.658 114.293 170.573 113.906C175.197 114.368 179.792 115.077 184.34 116.029C192.276 117.714 202.032 120.915 207.475 126.948C213.355 133.418 218.495 143.41 222.101 151.397C227.29 162.889 227.257 165.854 231.722 172.476C228.582 182.384 225.95 192.445 223.836 202.621C223.162 205.772 222.151 210.574 221.191 214.938C219.792 221.678 218.95 225.942 219.034 225.048C218.882 225.958 219.034 225.925 219.034 226.144C213.541 223.694 208.24 220.832 203.178 217.584C201.409 216.404 192.377 210.625 194.163 209.327V209.361ZM168.501 184.996C168.501 184.12 168.602 183.311 168.636 182.469C171.685 181.238 174.398 181.424 175.224 184.608C176.909 190.388 174.247 198.088 167.456 198.088C167.456 197.28 167.742 194.971 167.776 194.718C175.527 195.763 175.477 181.575 168.501 184.996ZM167.844 193.994C168.079 191.332 168.282 188.518 168.45 185.872C169.257 185.623 170.12 185.623 170.927 185.872C172.932 186.597 172.612 193.556 167.759 193.994H167.844ZM222.96 231.384C216.476 229.263 210.203 226.544 204.223 223.262C202.538 222.369 193.809 217.618 193.22 215.781C192.71 214.141 192.658 212.393 193.068 210.726C195.326 215.124 209.648 222.521 214.248 224.695C216.355 225.688 218.528 226.533 220.753 227.222C228.537 230.002 261.934 225.537 270.14 224.526C270.241 224.88 270.949 227.593 271.218 228.57C264.074 229.396 229.666 233.153 222.876 231.384H222.96ZM298.246 273.762C295.786 275.851 281.025 277.604 274.066 275.447C271.538 274.655 271.033 273.846 270.426 271.285C269.874 268.506 269.525 265.69 269.382 262.86C272.836 264.983 279.172 265.522 283.232 265.64C289.349 265.775 295.364 265.64 300.285 262.86C300.183 264.646 299.611 272.599 298.246 273.762ZM300.335 262.203C297.012 263.625 293.436 264.364 289.821 264.376C285.002 264.612 273.712 264.579 269.348 262.253C269.163 259.085 269.045 255.699 268.994 252.548C270.679 254.57 279.66 255.48 283.249 255.598C289.652 255.732 295.6 255.598 300.723 252.565C300.723 252.396 300.672 256.389 300.352 262.203H300.335ZM300.723 251.975C292.298 256.221 271.387 254.3 268.977 251.975V241.612C274.336 243.516 295.516 243.381 300.824 241.612C300.79 243.55 300.807 247.493 300.74 251.975H300.723ZM297.353 240.635C297.413 240.652 297.477 240.645 297.534 240.617C297.59 240.589 297.633 240.541 297.656 240.483C297.656 240.483 297.656 240.18 297.757 239.641C298.843 239.79 299.914 240.032 300.959 240.365C297.268 242.05 275.06 242.202 269.516 240.567C269.479 240.556 269.446 240.532 269.422 240.5C269.399 240.468 269.386 240.43 269.386 240.39C269.386 240.351 269.399 240.312 269.422 240.281C269.446 240.249 269.479 240.225 269.516 240.213C271.061 239.794 272.64 239.512 274.234 239.371C274.346 239.84 274.516 240.293 274.74 240.719C274.875 240.854 275.094 240.871 275.077 240.534C275.06 240.197 269.533 218.376 268.691 213.574C269.553 213.861 270.471 213.933 271.367 213.783C272.263 213.633 273.109 213.266 273.83 212.714C275.684 217.904 281.598 241.258 281.952 241.258C282.016 241.254 282.076 241.225 282.12 241.178C282.164 241.132 282.188 241.07 282.188 241.005L281.699 238.731H284.024C284.024 239.051 284.21 240.685 284.227 240.803C284.243 240.921 284.732 241.208 284.698 240.584C284.698 239.068 283.283 213.944 283.249 213.489C283.492 213.373 283.746 213.282 284.007 213.22C284.193 214.13 290.124 238.158 290.579 240.028C290.579 240.197 290.579 240.483 290.899 240.416C291.219 240.348 291.084 240.045 290.899 238.95L293.477 239.135V239.422C293.477 239.691 293.898 239.624 293.949 239.422C293.949 239.607 297.083 207.272 297.319 204.694C297.763 205.03 298.274 205.269 298.817 205.394C299.36 205.519 299.923 205.527 300.47 205.418C300.436 205.671 296.982 240.517 297.336 240.635H297.353ZM282.188 207.137C281.988 205.516 281.28 204 280.166 202.806C282.474 203.497 282.963 204.003 283.536 205.587C283.991 206.849 284.113 208.207 283.89 209.53C283.662 210.362 283.662 211.241 283.89 212.074C283.614 212.137 283.343 212.222 283.081 212.327C282.036 209.344 279.711 209.378 279.711 206.379C279.708 205.294 279.549 204.216 279.239 203.177C280.055 204.656 280.949 206.09 281.918 207.474C282.087 207.693 282.407 207.373 282.205 207.137H282.188ZM283.03 228.402C283.114 229.227 283.772 236.389 283.94 238.208H281.531C281.025 235.934 280.267 232.564 279.407 228.958L283.03 228.402ZM282.929 227.104L279.087 227.61C278.75 226.211 278.396 224.796 278.043 223.397C279.593 223.178 281.109 222.942 282.575 222.706C282.643 223.431 282.879 226.363 282.946 227.104H282.929ZM288.169 226.329C287.9 225.049 287.243 222.15 287.192 221.982C288.658 221.729 293.646 220.87 294.674 220.668C294.674 221.392 294.387 224.459 294.32 225.234C292.685 225.588 290.596 225.958 288.136 226.329H288.169ZM294.252 226.329C293.949 230.693 293.477 237.989 293.46 238.394C292.584 238.394 291.657 238.36 290.68 238.293C290.276 236.254 288.54 228.081 288.422 227.525C290.697 227.07 292.652 226.666 294.269 226.279L294.252 226.329ZM297.471 203.295C297.676 201.16 298.008 199.039 298.465 196.943C298.914 196.808 299.389 196.776 299.852 196.849C300.316 196.921 300.757 197.098 301.144 197.364C301.043 199.482 300.818 201.591 300.47 203.683C300.318 204.272 300.285 204.424 299.897 204.475C299.139 204.525 297.605 203.885 297.487 203.245L297.471 203.295ZM299.678 223.38C299.83 222.133 299.981 220.87 300.116 219.606C301.114 219.397 302.095 219.109 303.048 218.747C302.517 220.627 301.327 222.254 299.695 223.33L299.678 223.38ZM302.492 217.348C301.781 217.631 301.048 217.856 300.301 218.022C300.605 215.191 302.391 198.712 302.391 197.549C302.391 195.864 299.392 195.241 297.841 195.864C297.319 196.1 297.167 197.094 297.016 197.971C296.173 202.672 295.179 214.399 294.791 219.168L286.889 220.617C284.917 212.023 285.086 212.495 284.867 212.276C284.716 212.133 284.519 212.049 284.311 212.04C284.155 211.29 284.196 210.512 284.429 209.782C284.777 208.325 284.731 206.801 284.294 205.368C284.069 204.325 283.47 203.402 282.609 202.773C281.238 202.046 279.759 201.545 278.228 201.29C278.148 201.268 278.063 201.266 277.982 201.284C277.901 201.301 277.825 201.338 277.761 201.391C277.696 201.443 277.646 201.511 277.613 201.587C277.58 201.663 277.565 201.746 277.571 201.829C277.607 201.972 277.652 202.113 277.706 202.25C279.02 205.385 278.11 206.817 279.02 208.687C279.93 210.557 281.463 210.844 282.019 213.001C282.019 213.169 282.491 220.954 282.508 221.426L277.739 222.184C277.402 220.903 275.094 211.788 274.184 210.895C272.499 209.21 267.68 211.097 267.444 212.58C267.292 213.422 269.601 222.454 269.82 223.313C261.142 224.577 251.942 225.722 243.803 226.481C240.248 226.801 218.528 228.789 219.742 225.234C221.427 217.449 224.797 203.16 225.471 200.161V199.925C225.471 199.672 225.589 199.42 225.471 200.161C225.471 199.908 225.572 199.757 225.605 199.672L229.818 183.378C230.374 181.373 234.199 167.742 236.137 166.781C240.433 164.658 311.052 155.525 317.017 159.519C318.028 163.849 305.609 215.292 302.509 217.365L302.492 217.348Z" fill="#023047"/>
<path d="M165.99 81.8234V80.5259C165.99 80.3159 165.907 80.1145 165.758 79.9659C165.61 79.8174 165.408 79.734 165.198 79.734C164.987 79.7339 164.784 79.8168 164.632 79.9649C164.481 80.1129 164.394 80.3144 164.39 80.5259V82.0424C164.427 82.2428 164.54 82.4211 164.705 82.5402C164.871 82.6593 165.076 82.71 165.278 82.6818C165.48 82.6536 165.663 82.5486 165.789 82.3887C165.916 82.2288 165.976 82.0263 165.957 81.8234H165.99ZM273.679 185.518C273.19 185.046 272.499 184.49 271.859 184.693C270.797 185.03 269.736 187.726 269.281 188.838C268.003 192.156 266.989 195.571 266.248 199.049C266.939 200.835 278.599 198.493 280.183 197.718C280.688 197.482 280.621 196.875 280.452 196.336C278.785 192.392 276.498 188.74 273.679 185.518ZM266.703 198.83C267.006 197.431 270.848 186.715 272.162 185.737C274.201 186.9 278.296 194.044 279.391 196.74C277.874 197.347 267.579 199.959 266.703 198.83ZM129.51 234.569C129.342 234.687 125.668 237.012 125.5 237.18C125.46 237.197 125.426 237.225 125.402 237.261C125.378 237.297 125.365 237.339 125.365 237.383C125.365 237.426 125.378 237.468 125.402 237.504C125.426 237.54 125.46 237.568 125.5 237.585C126.443 237.854 129.594 238.208 130.555 238.309C153.606 232.53 153.757 232.53 153.471 232.53C153.626 232.509 153.767 232.429 153.864 232.306C153.961 232.184 154.008 232.028 153.993 231.873C153.993 231.586 153.538 229.598 153.403 228.991L129.51 234.569ZM174.163 74.7801C174.634 74.7801 175.561 74.9991 175.746 75.016C176.769 75.1221 177.783 75.3023 178.779 75.5552L180.296 75.8248C180.354 75.8391 180.415 75.8327 180.468 75.8066C180.521 75.7806 180.564 75.7365 180.588 75.6822C180.612 75.6279 180.616 75.5668 180.6 75.5096C180.583 75.4525 180.547 75.403 180.498 75.3698C179.619 74.625 178.553 74.1355 177.415 73.9544C176.288 73.7128 175.114 73.8125 174.045 74.2409C174.009 74.2486 173.976 74.2633 173.946 74.284C173.916 74.3047 173.891 74.331 173.871 74.3615C173.852 74.3921 173.838 74.4261 173.832 74.4618C173.826 74.4975 173.826 74.534 173.834 74.5695C173.842 74.6049 173.856 74.6384 173.877 74.6681C173.898 74.6979 173.924 74.7233 173.955 74.7428C173.985 74.7624 174.019 74.7757 174.055 74.7821C174.091 74.7885 174.127 74.7878 174.163 74.7801ZM160.817 76.2629C161.272 76.1618 162.25 76.0101 162.502 75.9764C163.523 75.7534 164.56 75.607 165.603 75.5383L167.288 75.353C167.355 75.353 167.419 75.3264 167.466 75.279C167.514 75.2316 167.54 75.1673 167.54 75.1002C167.54 75.0332 167.514 74.9689 167.466 74.9215C167.419 74.8741 167.355 74.8475 167.288 74.8475C166.202 74.387 165.01 74.2331 163.843 74.4024C162.675 74.5718 161.576 75.0579 160.666 75.8079C160.626 75.8079 160.586 75.8174 160.551 75.8357C160.515 75.8539 160.484 75.8804 160.461 75.9129C160.437 75.9454 160.422 75.983 160.416 76.0226C160.41 76.0622 160.413 76.1026 160.426 76.1406C160.439 76.1786 160.46 76.213 160.489 76.2411C160.517 76.2691 160.552 76.29 160.59 76.3019C160.629 76.3139 160.669 76.3166 160.709 76.3098C160.748 76.303 160.785 76.2869 160.817 76.2629ZM177.667 79.1948C177.457 79.1948 177.256 79.2782 177.107 79.4267C176.959 79.5753 176.875 79.7767 176.875 79.9867V81.5032C176.904 81.7133 177.016 81.9032 177.185 82.0311C177.354 82.1591 177.567 82.2147 177.777 82.1857C177.987 82.1566 178.177 82.0453 178.305 81.8762C178.433 81.7072 178.488 81.4942 178.459 81.2842V79.9867C178.462 79.8821 178.443 79.7781 178.404 79.681C178.365 79.5838 178.306 79.4956 178.232 79.4216C178.158 79.3476 178.07 79.2894 177.973 79.2504C177.876 79.2114 177.772 79.1925 177.667 79.1948ZM46.8945 225.487C49.2366 226.245 54.696 228.284 57.2067 227.98C57.51 227.98 57.847 227.677 58.066 227.138C59.751 223.347 58.5378 204.07 57.9312 200.346C57.51 197.667 47.8212 194.348 45.4791 196.252C43.9626 197.482 44.7208 211.754 44.8893 213.742C45.3274 218.544 44.8725 224.829 46.8945 225.487ZM46.2373 197.145C48.0571 195.83 56.499 198.948 56.7686 200.515C57.1898 203.16 58.7569 225.402 57.0719 227.138C54.8982 227.458 49.1355 225.689 46.9619 225.015C45.4285 224.509 45.9509 217.803 45.6981 213.658C45.5802 210.861 45.3948 199.757 46.2373 197.145ZM165.973 91.9165C165.932 91.8957 165.885 91.8849 165.839 91.8849C165.792 91.8849 165.746 91.8957 165.704 91.9165C165.283 92.0682 165.03 92.54 164.962 93.2308C164.908 95.016 165.507 96.7596 166.647 98.1342C166.915 98.499 167.253 98.8064 167.641 99.0379C168.03 99.2693 168.461 99.4202 168.909 99.4816C169.357 99.5429 169.813 99.5134 170.25 99.3948C170.686 99.2762 171.094 99.071 171.45 98.7913C172.465 97.9554 173.263 96.8858 173.775 95.6741C173.821 95.5796 173.845 95.4759 173.845 95.3708C173.845 95.2657 173.821 95.1619 173.775 95.0675C173.253 94.2587 172.006 95.4045 165.973 91.9165ZM165.822 92.4894C167.652 94.0483 169.795 95.1974 172.107 95.8594C168.501 101.993 164.878 93.7195 165.822 92.4894ZM169.95 88.5297C171.028 88.7319 174.011 88.3612 174.651 87.2659C174.971 86.7436 174.651 86.5751 173.943 84.4183C173.306 82.5445 172.557 80.7103 171.702 78.9252C171.399 78.4534 171.012 78.9252 171.231 79.2116C171.699 81.795 172.445 84.3203 173.455 86.7436C172.235 87.3142 170.987 87.8204 169.714 88.2601C169.712 88.2933 169.716 88.3266 169.727 88.3582C169.737 88.3897 169.754 88.4188 169.776 88.4439C169.798 88.4689 169.825 88.4894 169.854 88.5041C169.884 88.5189 169.917 88.5275 169.95 88.5297ZM232.093 263.753C238.412 259.743 233.491 256.052 229.313 257.805C228.285 255.934 228.049 255.783 225.943 255.884C215.007 256.44 165.62 267.864 165.148 268.05C162.654 269.077 168.99 283.956 171.5 285.911C172.073 286.349 171.888 286.433 178.072 285.22C178.476 288.893 180.077 295.33 183.818 295.532C185.561 295.213 187.259 294.681 188.873 293.948C191.997 297.057 195.324 299.956 198.831 302.626C202.706 305.221 227.476 276.289 231.183 272.919C232.244 272.565 233.188 272.329 233.07 269.701C236.272 269.111 238.749 267.14 237.047 264.309C235.901 262.59 233.913 262.86 232.093 263.753ZM232.683 259.17C233.373 259.422 233.727 259.692 233.508 260.383C233.054 261.439 232.389 262.391 231.554 263.18C231.107 261.809 230.583 260.465 229.987 259.153C230.859 258.839 231.814 258.845 232.683 259.17ZM214.754 258.614C215.378 261.562 215.799 263.163 216.591 265.876L204.914 268.083C204.242 265.645 203.461 263.239 202.572 260.872C204.779 260.45 212.951 258.917 214.754 258.614ZM197.483 281.108C198.101 283.225 199.014 285.245 200.196 287.107C196.961 288.674 193.911 290.106 191.316 291.286C190.385 288.46 189.075 285.773 187.423 283.299L197.483 281.108ZM192.714 281.108C192.145 278.181 191.425 275.284 190.558 272.431L204.038 269.516C204.773 272.37 205.661 275.182 206.7 277.941C202.066 278.918 197.23 280.013 192.714 281.041V281.108ZM198.325 281.193C198.14 280.923 196.994 281.327 209.396 278.48C209.615 279.732 210.079 280.929 210.761 282.001L200.887 286.837C200.3 284.824 199.439 282.902 198.325 281.125V281.193ZM210.12 278.294C216.523 276.812 222.404 275.396 226.465 274.318L211.586 281.58C211.311 280.384 210.82 279.247 210.137 278.227L210.12 278.294ZM207.273 277.772C206.732 274.897 206.046 272.051 205.217 269.246L216.726 266.415C216.726 266.499 217.501 269.094 217.855 270.206C218.023 270.712 219.455 274.79 219.54 274.857C216.052 275.632 207.542 277.637 207.256 277.705L207.273 277.772ZM202.066 261.04C202.622 264.107 203.145 266.095 203.751 268.387L190.271 271.352C189.479 268.673 188.94 266.921 187.777 263.888C190.406 263.281 200.044 261.36 202.083 260.973L202.066 261.04ZM187.221 263.989C187.878 267.359 188.367 269.128 189.075 271.622C187.946 271.875 178.729 274.183 178.729 274.183C178.392 274.183 178.527 274.705 178.864 274.638C178.864 274.638 188.856 272.784 189.361 272.667C189.361 272.667 190.086 275.565 192.158 281.243L181.29 283.67C179.736 277.792 177.782 272.027 175.443 266.415L187.221 263.989ZM171.972 285.338C169.411 283.417 163.547 269.263 165.316 268.488C165.316 268.488 169.175 267.645 174.971 266.432C176.416 272.337 178.343 278.114 180.734 283.703C171.871 285.692 172.258 285.489 171.989 285.27L171.972 285.338ZM183.767 294.302C180.919 294.302 179.218 288.152 178.712 285.355C178.712 285.034 177.819 285.355 186.632 283.518C187.07 283.434 186.379 283.316 188.485 287.697C189.089 289.073 189.835 290.383 190.709 291.606C188.493 292.667 186.194 293.546 183.834 294.234L183.767 294.302ZM199.471 301.514C196.045 299.113 192.755 296.526 189.614 293.763C192.512 292.566 195.798 291.033 198.629 289.685C200.845 292.261 203.356 294.569 206.11 296.56C204.964 297.537 201.072 301.143 199.539 301.446L199.471 301.514ZM206.599 296.054C204.373 293.57 201.881 291.338 199.168 289.399L209.75 284.192C211.224 285.705 212.931 286.974 214.805 287.949C212.155 290.692 209.441 293.371 206.666 295.987L206.599 296.054ZM215.378 287.41C213.972 285.975 212.373 284.745 210.626 283.754C217.871 280.097 222.033 277.873 228.79 274.132C225.791 276.778 218.175 284.563 215.445 287.343L215.378 287.41ZM231.453 271.571C230.728 272.094 220.803 274.52 219.944 274.722C218.871 269.21 217.297 263.807 215.243 258.58C218.512 258.024 224.982 256.895 227.392 257.164C227.718 257.548 228 257.966 228.234 258.411C227.084 259.193 226.132 260.231 225.454 261.444C225.285 261.866 225.724 262.085 225.943 261.882C226.786 260.991 227.771 260.245 228.858 259.675C229.622 261.255 230.286 262.881 230.846 264.545C229.349 265.569 227.999 266.793 226.836 268.184C226.617 268.454 226.684 268.656 226.836 268.74C227.24 268.976 227.274 268.37 231.25 266.011C231.652 267.375 231.879 268.785 231.924 270.206C231.84 270.51 231.79 271.285 231.52 271.504L231.453 271.571ZM235.648 267.055C234.896 267.917 233.948 268.588 232.885 269.01C232.73 267.809 232.487 266.621 232.16 265.455C233.255 264.899 234.957 264.191 235.53 265.219C235.746 265.455 235.88 265.755 235.914 266.073C235.947 266.391 235.878 266.712 235.716 266.988L235.648 267.055Z" fill="#023047"/>
</svg>
