<svg width="237" height="230" viewBox="0 0 237 230" fill="none" xmlns="http://www.w3.org/2000/svg">
<path id="Vector" d="M121.99 8.82338V7.52593C121.99 7.31589 121.907 7.11446 121.758 6.96594C121.61 6.81742 121.408 6.73398 121.198 6.73398C120.987 6.73393 120.784 6.81683 120.632 6.96488C120.481 7.11294 120.394 7.31436 120.39 7.52593V9.04243C120.427 9.24283 120.54 9.42114 120.705 9.54024C120.871 9.65933 121.076 9.71005 121.278 9.68183C121.48 9.65361 121.663 9.54862 121.789 9.38873C121.916 9.22883 121.976 9.02634 121.957 8.82338H121.99ZM229.679 112.518C229.19 112.046 228.499 111.49 227.859 111.693C226.797 112.03 225.736 114.726 225.281 115.838C224.003 119.156 222.989 122.571 222.248 126.049C222.939 127.835 234.599 125.493 236.183 124.718C236.688 124.482 236.621 123.875 236.452 123.336C234.785 119.392 232.498 115.74 229.679 112.518ZM222.703 125.83C223.006 124.431 226.848 113.715 228.162 112.737C230.201 113.9 234.296 121.044 235.391 123.74C233.874 124.347 223.579 126.959 222.703 125.83ZM85.51 161.569C85.3415 161.687 81.6682 164.012 81.4997 164.18C81.4598 164.197 81.4257 164.225 81.4017 164.261C81.3777 164.297 81.3649 164.339 81.3649 164.383C81.3649 164.426 81.3777 164.468 81.4017 164.504C81.4257 164.54 81.4598 164.568 81.4997 164.585C82.4433 164.854 85.5943 165.208 86.5547 165.309C109.606 159.53 109.757 159.53 109.471 159.53C109.626 159.509 109.767 159.429 109.864 159.306C109.961 159.184 110.008 159.028 109.993 158.873C109.993 158.586 109.538 156.598 109.403 155.991L85.51 161.569ZM130.163 1.78008C130.634 1.78008 131.561 1.99913 131.746 2.01598C132.769 2.12209 133.783 2.3023 134.779 2.55518L136.296 2.82478C136.354 2.83915 136.415 2.83272 136.468 2.80664C136.521 2.78056 136.564 2.73649 136.588 2.68217C136.612 2.62785 136.616 2.56677 136.6 2.50964C136.583 2.45252 136.547 2.40301 136.498 2.36983C135.619 1.625 134.553 1.13546 133.415 0.954426C132.288 0.712771 131.114 0.812504 130.045 1.24088C130.009 1.24862 129.976 1.26326 129.946 1.28396C129.916 1.30467 129.891 1.33103 129.871 1.36154C129.852 1.39205 129.838 1.42612 129.832 1.46179C129.826 1.49746 129.826 1.53405 129.834 1.56945C129.842 1.60486 129.856 1.63839 129.877 1.66813C129.898 1.69788 129.924 1.72326 129.955 1.74282C129.985 1.76238 130.019 1.77573 130.055 1.78212C130.091 1.78852 130.127 1.78782 130.163 1.78008ZM116.817 3.26287C117.272 3.16177 118.25 3.01013 118.502 2.97643C119.523 2.75342 120.56 2.60699 121.603 2.53833L123.288 2.35298C123.355 2.35298 123.419 2.32635 123.466 2.27895C123.514 2.23155 123.54 2.16726 123.54 2.10023C123.54 2.03319 123.514 1.96891 123.466 1.92151C123.419 1.87411 123.355 1.84747 123.288 1.84747C122.202 1.38701 121.01 1.23309 119.843 1.40242C118.675 1.57175 117.576 2.05787 116.666 2.80793C116.626 2.80793 116.586 2.81744 116.551 2.83569C116.515 2.85394 116.484 2.8804 116.461 2.91289C116.437 2.94538 116.422 2.98297 116.416 3.02256C116.41 3.06215 116.413 3.10261 116.426 3.14061C116.439 3.1786 116.46 3.21304 116.489 3.24108C116.517 3.26913 116.552 3.28999 116.59 3.30193C116.629 3.31387 116.669 3.31656 116.709 3.30977C116.748 3.30298 116.785 3.2869 116.817 3.26287ZM133.667 6.19478C133.457 6.19478 133.256 6.27822 133.107 6.42674C132.959 6.57526 132.875 6.77669 132.875 6.98673V8.50323C132.904 8.71326 133.016 8.90317 133.185 9.03115C133.354 9.15912 133.567 9.2147 133.777 9.18566C133.987 9.15661 134.177 9.04531 134.305 8.87625C134.433 8.70719 134.488 8.49422 134.459 8.28418V6.98673C134.462 6.8821 134.443 6.77808 134.404 6.68096C134.365 6.58384 134.306 6.49562 134.232 6.42161C134.158 6.34761 134.07 6.28936 133.973 6.25037C133.876 6.21139 133.772 6.19248 133.667 6.19478ZM2.89447 152.487C5.23662 153.245 10.696 155.284 13.2067 154.98C13.51 154.98 13.847 154.677 14.066 154.138C15.751 150.347 14.5378 131.07 13.9312 127.346C13.51 124.667 3.82122 121.348 1.47907 123.252C-0.0374309 124.482 0.720818 138.754 0.889318 140.742C1.32742 145.544 0.872469 151.829 2.89447 152.487ZM2.23732 124.145C4.05712 122.83 12.499 125.948 12.7686 127.515C13.1898 130.16 14.7569 152.402 13.0719 154.138C10.8982 154.458 5.13552 152.689 2.96187 152.015C1.42852 151.509 1.95087 144.803 1.69812 140.658C1.58017 137.861 1.39482 126.757 2.23732 124.145ZM121.973 18.9165C121.932 18.8957 121.885 18.8849 121.839 18.8849C121.792 18.8849 121.746 18.8957 121.704 18.9165C121.283 19.0682 121.03 19.54 120.962 20.2308C120.908 22.016 121.507 23.7596 122.647 25.1342C122.915 25.4991 123.253 25.8064 123.641 26.0379C124.03 26.2693 124.461 26.4202 124.909 26.4816C125.357 26.5429 125.813 26.5134 126.25 26.3948C126.686 26.2762 127.094 26.071 127.45 25.7913C128.465 24.9554 129.263 23.8858 129.775 22.6741C129.821 22.5796 129.845 22.4759 129.845 22.3708C129.845 22.2657 129.821 22.1619 129.775 22.0675C129.253 21.2587 128.006 22.4045 121.973 18.9165ZM121.822 19.4894C123.652 21.0483 125.795 22.1974 128.107 22.8594C124.501 28.9928 120.878 20.7195 121.822 19.4894ZM125.95 15.5297C127.028 15.7319 130.011 15.3612 130.651 14.2659C130.971 13.7436 130.651 13.5751 129.943 11.4183C129.306 9.54452 128.557 7.71027 127.702 5.92518C127.399 5.45338 127.012 5.92517 127.231 6.21162C127.699 8.795 128.445 11.3203 129.455 13.7436C128.235 14.3142 126.987 14.8204 125.714 15.2601C125.712 15.2933 125.716 15.3266 125.727 15.3582C125.737 15.3897 125.754 15.4188 125.776 15.4439C125.798 15.4689 125.825 15.4894 125.854 15.5041C125.884 15.5189 125.917 15.5275 125.95 15.5297ZM188.093 190.753C194.412 186.743 189.491 183.052 185.313 184.805C184.285 182.934 184.049 182.783 181.943 182.884C171.007 183.44 121.62 194.864 121.148 195.05C118.654 196.077 124.99 210.956 127.5 212.911C128.073 213.349 127.888 213.433 134.072 212.22C134.476 215.893 136.077 222.33 139.818 222.532C141.561 222.213 143.259 221.681 144.873 220.948C147.997 224.057 151.324 226.956 154.831 229.626C158.706 232.221 183.476 203.289 187.183 199.919C188.244 199.565 189.188 199.329 189.07 196.701C192.272 196.111 194.749 194.14 193.047 191.309C191.901 189.59 189.913 189.86 188.093 190.753ZM188.683 186.17C189.373 186.422 189.727 186.692 189.508 187.383C189.054 188.439 188.389 189.391 187.554 190.18C187.107 188.809 186.583 187.465 185.987 186.153C186.859 185.839 187.814 185.845 188.683 186.17ZM170.754 185.614C171.378 188.562 171.799 190.163 172.591 192.876L160.914 195.083C160.242 192.645 159.461 190.239 158.572 187.872C160.779 187.45 168.951 185.917 170.754 185.614ZM153.483 208.108C154.101 210.225 155.014 212.245 156.196 214.107C152.961 215.674 149.911 217.106 147.316 218.286C146.385 215.46 145.075 212.773 143.423 210.299L153.483 208.108ZM148.714 208.108C148.145 205.181 147.425 202.284 146.558 199.431L160.038 196.516C160.773 199.37 161.661 202.182 162.7 204.941C158.066 205.918 153.23 207.013 148.714 208.041V208.108ZM154.325 208.193C154.14 207.923 152.994 208.327 165.396 205.48C165.615 206.732 166.079 207.929 166.761 209.001L156.887 213.837C156.3 211.824 155.439 209.902 154.325 208.125V208.193ZM166.12 205.294C172.523 203.812 178.404 202.396 182.465 201.318L167.586 208.58C167.311 207.384 166.82 206.247 166.137 205.227L166.12 205.294ZM163.273 204.772C162.732 201.897 162.046 199.051 161.217 196.246L172.726 193.415C172.726 193.499 173.501 196.094 173.855 197.206C174.023 197.712 175.455 201.79 175.54 201.857C172.052 202.632 163.542 204.637 163.256 204.705L163.273 204.772ZM158.066 188.04C158.622 191.107 159.145 193.095 159.751 195.387L146.271 198.352C145.479 195.673 144.94 193.921 143.777 190.888C146.406 190.281 156.044 188.36 158.083 187.973L158.066 188.04ZM143.221 190.989C143.878 194.359 144.367 196.128 145.075 198.622C143.946 198.875 134.729 201.183 134.729 201.183C134.392 201.183 134.527 201.705 134.864 201.638C134.864 201.638 144.856 199.784 145.361 199.667C145.361 199.667 146.086 202.565 148.158 208.243L137.29 210.67C135.736 204.792 133.782 199.027 131.443 193.415L143.221 190.989ZM127.972 212.338C125.411 210.417 119.547 196.263 121.316 195.488C121.316 195.488 125.175 194.645 130.971 193.432C132.416 199.337 134.343 205.114 136.734 210.703C127.871 212.692 128.258 212.489 127.989 212.27L127.972 212.338ZM139.767 221.302C136.919 221.302 135.218 215.152 134.712 212.355C134.712 212.034 133.819 212.355 142.632 210.518C143.07 210.434 142.379 210.316 144.485 214.697C145.089 216.073 145.835 217.383 146.709 218.606C144.493 219.667 142.194 220.546 139.834 221.234L139.767 221.302ZM155.471 228.514C152.045 226.113 148.755 223.526 145.614 220.763C148.512 219.566 151.798 218.033 154.629 216.685C156.845 219.261 159.356 221.569 162.11 223.56C160.964 224.537 157.072 228.143 155.539 228.446L155.471 228.514ZM162.599 223.054C160.373 220.57 157.881 218.338 155.168 216.399L165.75 211.192C167.224 212.705 168.931 213.974 170.805 214.949C168.155 217.692 165.441 220.371 162.666 222.987L162.599 223.054ZM171.378 214.41C169.972 212.975 168.373 211.745 166.626 210.754C173.871 207.097 178.033 204.873 184.79 201.132C181.791 203.778 174.175 211.563 171.445 214.343L171.378 214.41ZM187.453 198.571C186.728 199.094 176.803 201.52 175.944 201.722C174.871 196.21 173.297 190.807 171.243 185.58C174.512 185.024 180.982 183.895 183.392 184.164C183.718 184.548 184 184.966 184.234 185.411C183.084 186.193 182.132 187.231 181.454 188.444C181.285 188.866 181.724 189.085 181.943 188.882C182.786 187.991 183.771 187.245 184.858 186.675C185.622 188.255 186.286 189.881 186.846 191.545C185.349 192.569 183.999 193.793 182.836 195.184C182.617 195.454 182.684 195.656 182.836 195.74C183.24 195.976 183.274 195.37 187.25 193.011C187.652 194.375 187.879 195.785 187.924 197.206C187.84 197.51 187.79 198.285 187.52 198.504L187.453 198.571ZM191.648 194.055C190.896 194.917 189.948 195.588 188.885 196.01C188.73 194.809 188.487 193.621 188.16 192.455C189.255 191.899 190.957 191.191 191.53 192.219C191.746 192.455 191.88 192.755 191.914 193.073C191.947 193.391 191.878 193.712 191.716 193.988L191.648 194.055Z" fill="#023047"/>
</svg>
